<svg width="928" height="498" viewBox="0 0 928 498" fill="none" xmlns="http://www.w3.org/2000/svg">
<rect width="928" height="498" fill="white"/>
<mask id="mask0_99_36124" style="mask-type:alpha" maskUnits="userSpaceOnUse" x="0" y="0" width="928" height="498">
<rect width="928" height="498" fill="white"/>
</mask>
<g mask="url(#mask0_99_36124)">
<path fill-rule="evenodd" clip-rule="evenodd" d="M572.989 0H949.351V153.296H572.989V0Z" fill="url(#paint0_linear_99_36124)"/>
<path fill-rule="evenodd" clip-rule="evenodd" d="M936.131 79.8553C936.131 79.8553 905.901 70.9553 878.838 70.9553C851.776 70.9553 796.477 67.1103 771.494 59.2791C746.511 51.4479 708.316 34.8384 684.173 24.8001C660.03 14.7619 629.107 0.41004 582.943 -8.06449C536.778 -16.539 175.251 -25.25 175.251 -25.25L296.498 148.811L647.462 306.193L958.935 361.412L936.131 79.8553Z" fill="url(#paint1_linear_99_36124)"/>
<path fill-rule="evenodd" clip-rule="evenodd" d="M937.244 159.935C937.244 159.935 911.732 143.55 877.17 134.352C842.607 125.154 804.788 117.769 766.488 98.763C728.189 79.7574 678.765 66.5475 651.909 63.1696C625.053 59.7916 598.069 58.1255 577.378 51.4912C556.688 44.857 524.287 27.5762 495.619 22.5755C466.951 17.5749 441.777 19.7407 420.53 15.3439C399.284 10.9471 328.205 -11.3473 328.205 -11.3473L183.035 -20.2451L216.961 75.9602L455.019 213.322L800.973 352.35L982.85 367.921L937.244 159.935Z" fill="url(#paint2_linear_99_36124)"/>
<path fill-rule="evenodd" clip-rule="evenodd" d="M937.244 159.935C937.244 159.935 911.732 143.55 877.17 134.352C842.607 125.154 804.788 117.769 766.488 98.763C728.189 79.7574 678.765 66.5475 651.909 63.1696C625.053 59.7916 598.069 58.1255 577.378 51.4912C556.688 44.857 524.287 27.5762 495.619 22.5755C466.951 17.5749 441.777 19.7407 420.53 15.3439C399.284 10.9471 328.205 -11.3473 328.205 -11.3473L183.035 -20.2451L216.961 75.9602L455.019 213.322L800.973 352.35L982.85 367.921L937.244 159.935Z" fill="url(#paint3_linear_99_36124)"/>
<g filter="url(#filter0_i_99_36124)">
<path fill-rule="evenodd" clip-rule="evenodd" d="M353.086 60.4397C353.086 60.4397 371.129 64.715 390.539 70.2602C409.948 75.8053 439.569 81.3817 466.766 83.0507C493.964 84.7196 519.293 83.0889 543.774 81.2175C568.254 79.346 586.875 81.2175 607.48 87.2064C619.65 90.7436 625.657 96.0264 634.26 99.3831C640.769 101.923 649.424 103.455 656.35 104.696C672.431 107.578 688.701 112.893 707.873 122.465C727.045 132.037 748.806 139.64 768.379 142.936C787.952 146.233 820.976 147.925 853.637 152.102C886.298 156.279 908.007 163.861 920.56 168.907C933.113 173.953 946.841 182.656 946.841 182.656L965.127 361.411L714.388 329.854L262.006 41.4619L353.086 60.4397Z" fill="url(#paint4_linear_99_36124)"/>
</g>
<g filter="url(#filter1_f_99_36124)">
<path fill-rule="evenodd" clip-rule="evenodd" d="M935.121 249C935.121 249 894.359 233.537 866.056 221.85C837.752 210.162 779.905 189.47 725.863 181.654C671.821 173.838 602.264 157.578 567.093 148.672C531.923 139.767 376.413 99.2002 376.413 99.2002L361.985 148.672L647.462 306.192L949.647 377.484L935.121 249Z" fill="url(#paint5_linear_99_36124)"/>
</g>
<g filter="url(#filter2_f_99_36124)">
<path fill-rule="evenodd" clip-rule="evenodd" d="M502.059 122.264L614.424 162.379C614.424 162.379 530.824 144.872 519.246 144.672C514.009 144.582 413.583 116.391 410.178 109.548C408.564 106.304 502.059 122.264 502.059 122.264Z" fill="#8F46B2"/>
</g>
<g filter="url(#filter3_f_99_36124)">
<path fill-rule="evenodd" clip-rule="evenodd" d="M363.214 76.6484C363.214 76.6484 481.795 81.5238 527.511 117.889C573.227 154.254 676.126 201.438 676.126 201.438C676.126 201.438 514.645 173.839 466.192 173.839C417.739 173.839 357.401 125.244 357.401 125.244L363.214 76.6484Z" fill="url(#paint6_linear_99_36124)"/>
</g>
<g filter="url(#filter4_f_99_36124)">
<path fill-rule="evenodd" clip-rule="evenodd" d="M378.828 264.737C378.828 264.737 335.621 260.419 329.318 257.382C275.842 248.035 284.021 249.241 183.598 225.842C83.1738 202.444 5.01636 126.58 -14.6342 126.58C-34.2848 126.58 -14.6341 159.011 -14.6341 159.011C-14.6341 159.011 16.5136 221.378 140.412 257.382C264.311 293.386 378.828 264.737 378.828 264.737Z" fill="url(#paint7_linear_99_36124)" fill-opacity="0.9"/>
</g>
<path fill-rule="evenodd" clip-rule="evenodd" d="M254.221 -0.000702858C254.221 -0.000702858 294.822 17.3868 331.774 42.468C368.726 67.5493 379.892 81.8036 397.141 93.8797C414.389 105.956 455.236 116.606 480.801 125.247C506.366 133.889 529.627 150.734 544.414 165.328C559.202 179.923 588.188 190.498 615.003 197.567C641.817 204.637 664.844 213.365 685.63 229.872C706.415 246.38 729.152 253.16 752.894 257.426C776.636 261.692 786.12 263.577 805.439 285.745C824.757 307.912 838.069 306.688 875.939 304.488C913.81 302.289 944.418 310.84 944.418 310.84L949.647 519.086L-8.0957 514.726V-8.06543L240.547 -8.06543L254.221 -0.000702858Z" fill="url(#paint8_linear_99_36124)"/>
<g filter="url(#filter5_f_99_36124)">
<path fill-rule="evenodd" clip-rule="evenodd" d="M265.143 259.674C265.143 259.674 423.019 265.734 473.469 289.103C557.795 328.163 592.516 333.843 634.268 341.046C752.304 361.412 943.355 333.549 943.355 333.549L932.946 460.431C932.946 460.431 630.911 418.17 530.983 367.921C431.056 317.673 265.143 259.674 265.143 259.674Z" fill="url(#paint9_linear_99_36124)"/>
</g>
<g filter="url(#filter6_f_99_36124)">
<path d="M153.38 210.465C90.7493 183.4 18.1346 114.52 0.241249 89.1914L-7.4187 216.496C31.1223 241.804 113.872 246.56 163.091 253.342C217.796 260.88 315.988 259.694 356.459 260.88C307.805 251.533 216.011 237.53 153.38 210.465Z" fill="url(#paint10_linear_99_36124)"/>
</g>
<g filter="url(#filter7_f_99_36124)">
<path fill-rule="evenodd" clip-rule="evenodd" d="M6.55651e-06 115.134L-0.975952 497.277L927.397 498.079L927.145 386.05C927.145 386.05 862.981 397.54 781.677 397.54C700.373 397.54 612.072 384.282 522.865 325.232C433.657 266.183 380.933 266.35 295.722 249.182C202.737 237.603 167.916 223.85 123.102 201.782C69.4028 175.338 6.55651e-06 115.134 6.55651e-06 115.134Z" fill="url(#paint11_linear_99_36124)"/>
</g>
<g filter="url(#filter8_f_99_36124)">
<path fill-rule="evenodd" clip-rule="evenodd" d="M619.612 372.866C619.612 372.866 697.293 392.061 745.291 392.061C793.289 392.061 927.035 384.592 927.035 384.592V481.838C927.035 481.838 787.226 465.524 715.09 435.282C643.682 419.555 619.612 372.866 619.612 372.866Z" fill="url(#paint12_linear_99_36124)"/>
</g>
<path fill-rule="evenodd" clip-rule="evenodd" d="M-0.965027 153.41L-0.975952 497.052H926.432C926.432 497.052 420.457 377.929 327.267 343.799C234.077 309.67 138.181 270.789 95.1764 238.342C52.1721 205.896 -0.965027 153.41 -0.965027 153.41Z" fill="url(#paint13_linear_99_36124)"/>
<g filter="url(#filter9_f_99_36124)">
<path fill-rule="evenodd" clip-rule="evenodd" d="M-3.69549e-06 298.875L-0.603149 498.241L932.524 557.159V403.656C932.524 403.656 730.102 415.14 443.191 377.485C156.281 339.83 -3.69549e-06 298.875 -3.69549e-06 298.875Z" fill="url(#paint14_linear_99_36124)"/>
</g>
<g filter="url(#filter10_bf_99_36124)">
<path fill-rule="evenodd" clip-rule="evenodd" d="M-9.65043 -19.4189C-9.65043 -19.4189 52.0882 65.4092 140.412 138.279C178.953 170.076 204.828 190.021 250.426 213.359C269.447 223.095 295.423 239.051 327.206 251.231L384.505 270.026C384.505 270.026 329.77 273.233 286.758 270.026C242.284 266.71 195.322 325.104 153.259 325.104C54.9177 325.104 -0.904699 336.804 -0.904699 336.804C-0.904699 336.804 -8.42173 345.121 -9.65035 270.026C-10.879 194.931 -9.65043 -19.4189 -9.65043 -19.4189Z" fill="url(#paint15_linear_99_36124)"/>
</g>
<g filter="url(#filter11_f_99_36124)">
<path fill-rule="evenodd" clip-rule="evenodd" d="M641.544 377.243C641.544 377.243 710.596 380.297 730.271 377.243C786.255 368.555 813.105 364.338 835.331 361.17C880.386 354.748 955.745 324.99 955.745 324.99L944.373 450.85C944.373 450.85 797.877 441.901 730.271 418.326C662.666 394.752 641.544 377.243 641.544 377.243Z" fill="url(#paint16_linear_99_36124)"/>
</g>
<g filter="url(#filter12_f_99_36124)">
<path d="M177.868 303.757C126.48 257.974 39.5663 224.496 2.53318 213.48H-7.90125V506.805H387.943C344.537 462.239 229.256 349.541 177.868 303.757Z" fill="url(#paint17_linear_99_36124)"/>
</g>
</g>
<defs>
<filter id="filter0_i_99_36124" x="262.006" y="41.4619" width="703.121" height="320.949" filterUnits="userSpaceOnUse" color-interpolation-filters="sRGB">
<feFlood flood-opacity="0" result="BackgroundImageFix"/>
<feBlend mode="normal" in="SourceGraphic" in2="BackgroundImageFix" result="shape"/>
<feColorMatrix in="SourceAlpha" type="matrix" values="0 0 0 0 0 0 0 0 0 0 0 0 0 0 0 0 0 0 127 0" result="hardAlpha"/>
<feOffset dy="1"/>
<feGaussianBlur stdDeviation="101.5"/>
<feComposite in2="hardAlpha" operator="arithmetic" k2="-1" k3="1"/>
<feColorMatrix type="matrix" values="0 0 0 0 0.931046 0 0 0 0 0.169089 0 0 0 0 0.173735 0 0 0 1 0"/>
<feBlend mode="normal" in2="shape" result="effect1_innerShadow_99_36124"/>
</filter>
<filter id="filter1_f_99_36124" x="356.548" y="93.7636" width="598.535" height="289.157" filterUnits="userSpaceOnUse" color-interpolation-filters="sRGB">
<feFlood flood-opacity="0" result="BackgroundImageFix"/>
<feBlend mode="normal" in="SourceGraphic" in2="BackgroundImageFix" result="shape"/>
<feGaussianBlur stdDeviation="2.71828" result="effect1_foregroundBlur_99_36124"/>
</filter>
<filter id="filter2_f_99_36124" x="382.974" y="81.9305" width="258.632" height="107.632" filterUnits="userSpaceOnUse" color-interpolation-filters="sRGB">
<feFlood flood-opacity="0" result="BackgroundImageFix"/>
<feBlend mode="normal" in="SourceGraphic" in2="BackgroundImageFix" result="shape"/>
<feGaussianBlur stdDeviation="13.5914" result="effect1_foregroundBlur_99_36124"/>
</filter>
<filter id="filter3_f_99_36124" x="221.487" y="-59.2657" width="590.554" height="396.617" filterUnits="userSpaceOnUse" color-interpolation-filters="sRGB">
<feFlood flood-opacity="0" result="BackgroundImageFix"/>
<feBlend mode="normal" in="SourceGraphic" in2="BackgroundImageFix" result="shape"/>
<feGaussianBlur stdDeviation="67.957" result="effect1_foregroundBlur_99_36124"/>
</filter>
<filter id="filter4_f_99_36124" x="-223.368" y="-73.4199" width="802.196" height="548.962" filterUnits="userSpaceOnUse" color-interpolation-filters="sRGB">
<feFlood flood-opacity="0" result="BackgroundImageFix"/>
<feBlend mode="normal" in="SourceGraphic" in2="BackgroundImageFix" result="shape"/>
<feGaussianBlur stdDeviation="100" result="effect1_foregroundBlur_99_36124"/>
</filter>
<filter id="filter5_f_99_36124" x="129.229" y="123.76" width="950.04" height="472.585" filterUnits="userSpaceOnUse" color-interpolation-filters="sRGB">
<feFlood flood-opacity="0" result="BackgroundImageFix"/>
<feBlend mode="normal" in="SourceGraphic" in2="BackgroundImageFix" result="shape"/>
<feGaussianBlur stdDeviation="67.957" result="effect1_foregroundBlur_99_36124"/>
</filter>
<filter id="filter6_f_99_36124" x="-17.4187" y="79.1914" width="383.878" height="191.688" filterUnits="userSpaceOnUse" color-interpolation-filters="sRGB">
<feFlood flood-opacity="0" result="BackgroundImageFix"/>
<feBlend mode="normal" in="SourceGraphic" in2="BackgroundImageFix" result="shape"/>
<feGaussianBlur stdDeviation="5" result="effect1_foregroundBlur_99_36124"/>
</filter>
<filter id="filter7_f_99_36124" x="-10.976" y="105.134" width="948.373" height="402.944" filterUnits="userSpaceOnUse" color-interpolation-filters="sRGB">
<feFlood flood-opacity="0" result="BackgroundImageFix"/>
<feBlend mode="normal" in="SourceGraphic" in2="BackgroundImageFix" result="shape"/>
<feGaussianBlur stdDeviation="5" result="effect1_foregroundBlur_99_36124"/>
</filter>
<filter id="filter8_f_99_36124" x="519.612" y="272.866" width="507.423" height="308.972" filterUnits="userSpaceOnUse" color-interpolation-filters="sRGB">
<feFlood flood-opacity="0" result="BackgroundImageFix"/>
<feBlend mode="normal" in="SourceGraphic" in2="BackgroundImageFix" result="shape"/>
<feGaussianBlur stdDeviation="50" result="effect1_foregroundBlur_99_36124"/>
</filter>
<filter id="filter9_f_99_36124" x="-250.603" y="48.875" width="1433.13" height="758.284" filterUnits="userSpaceOnUse" color-interpolation-filters="sRGB">
<feFlood flood-opacity="0" result="BackgroundImageFix"/>
<feBlend mode="normal" in="SourceGraphic" in2="BackgroundImageFix" result="shape"/>
<feGaussianBlur stdDeviation="125" result="effect1_foregroundBlur_99_36124"/>
</filter>
<filter id="filter10_bf_99_36124" x="-210.196" y="-219.419" width="794.702" height="756.496" filterUnits="userSpaceOnUse" color-interpolation-filters="sRGB">
<feFlood flood-opacity="0" result="BackgroundImageFix"/>
<feGaussianBlur in="BackgroundImageFix" stdDeviation="50"/>
<feComposite in2="SourceAlpha" operator="in" result="effect1_backgroundBlur_99_36124"/>
<feBlend mode="normal" in="SourceGraphic" in2="effect1_backgroundBlur_99_36124" result="shape"/>
<feGaussianBlur stdDeviation="100" result="effect2_foregroundBlur_99_36124"/>
</filter>
<filter id="filter11_f_99_36124" x="505.63" y="189.076" width="586.029" height="397.688" filterUnits="userSpaceOnUse" color-interpolation-filters="sRGB">
<feFlood flood-opacity="0" result="BackgroundImageFix"/>
<feBlend mode="normal" in="SourceGraphic" in2="BackgroundImageFix" result="shape"/>
<feGaussianBlur stdDeviation="67.957" result="effect1_foregroundBlur_99_36124"/>
</filter>
<filter id="filter12_f_99_36124" x="-257.901" y="-36.5195" width="895.845" height="793.324" filterUnits="userSpaceOnUse" color-interpolation-filters="sRGB">
<feFlood flood-opacity="0" result="BackgroundImageFix"/>
<feBlend mode="normal" in="SourceGraphic" in2="BackgroundImageFix" result="shape"/>
<feGaussianBlur stdDeviation="125" result="effect1_foregroundBlur_99_36124"/>
</filter>
<linearGradient id="paint0_linear_99_36124" x1="949.351" y1="-32.1016" x2="708.778" y2="-32.1016" gradientUnits="userSpaceOnUse">
<stop stop-color="#27275B"/>
<stop offset="1" stop-color="#202250"/>
</linearGradient>
<linearGradient id="paint1_linear_99_36124" x1="459.839" y1="-7.00445" x2="459.839" y2="98.832" gradientUnits="userSpaceOnUse">
<stop stop-color="#272960"/>
<stop offset="1" stop-color="#2A295D"/>
</linearGradient>
<linearGradient id="paint2_linear_99_36124" x1="370.991" y1="-10.0938" x2="380.938" y2="173.911" gradientUnits="userSpaceOnUse">
<stop stop-color="#1C1B45"/>
<stop offset="1" stop-color="#29224E"/>
</linearGradient>
<linearGradient id="paint3_linear_99_36124" x1="269.216" y1="49.9998" x2="367.144" y2="188.789" gradientUnits="userSpaceOnUse">
<stop stop-color="#191942"/>
<stop offset="1" stop-color="#04304A" stop-opacity="0.01"/>
</linearGradient>
<linearGradient id="paint4_linear_99_36124" x1="537.915" y1="88.9892" x2="532.204" y2="183.89" gradientUnits="userSpaceOnUse">
<stop stop-color="#CB2728"/>
<stop offset="1" stop-color="#7B152B"/>
</linearGradient>
<linearGradient id="paint5_linear_99_36124" x1="657.701" y1="173.231" x2="653.077" y2="261.4" gradientUnits="userSpaceOnUse">
<stop stop-color="#8842AA"/>
<stop offset="1" stop-color="#A662E9"/>
</linearGradient>
<linearGradient id="paint6_linear_99_36124" x1="396.09" y1="102.863" x2="392.874" y2="197.953" gradientUnits="userSpaceOnUse">
<stop stop-color="#931C2E"/>
<stop offset="0.384522" stop-color="#914CBD"/>
<stop offset="1" stop-color="#A05CDD"/>
</linearGradient>
<linearGradient id="paint7_linear_99_36124" x1="134.562" y1="182.604" x2="119.869" y2="269.447" gradientUnits="userSpaceOnUse">
<stop stop-color="#D52D2E"/>
<stop offset="0.334128" stop-color="#D22C2D"/>
<stop offset="1" stop-color="#C72A2C"/>
</linearGradient>
<linearGradient id="paint8_linear_99_36124" x1="260.233" y1="79.0237" x2="235.419" y2="300.952" gradientUnits="userSpaceOnUse">
<stop stop-color="#4AB0D6"/>
<stop offset="0.426288" stop-color="#425FBE"/>
<stop offset="1" stop-color="#871F89"/>
</linearGradient>
<linearGradient id="paint9_linear_99_36124" x1="311.778" y1="214.001" x2="309.066" y2="416.282" gradientUnits="userSpaceOnUse">
<stop stop-color="#822688"/>
<stop offset="1" stop-color="#81287E"/>
</linearGradient>
<linearGradient id="paint10_linear_99_36124" x1="356.459" y1="260.88" x2="43.134" y2="160.745" gradientUnits="userSpaceOnUse">
<stop stop-color="#D32D30"/>
<stop offset="1" stop-color="#D32D30" stop-opacity="0"/>
</linearGradient>
<linearGradient id="paint11_linear_99_36124" x1="345.964" y1="284.219" x2="282.569" y2="497.253" gradientUnits="userSpaceOnUse">
<stop stop-color="#D52D2F"/>
<stop offset="1" stop-color="#510315"/>
</linearGradient>
<linearGradient id="paint12_linear_99_36124" x1="773.353" y1="386.495" x2="747.666" y2="455.065" gradientUnits="userSpaceOnUse">
<stop stop-color="#AE2128"/>
<stop offset="1" stop-color="#AE2128" stop-opacity="0"/>
</linearGradient>
<linearGradient id="paint13_linear_99_36124" x1="-51.1467" y1="279.574" x2="-116.02" y2="467.547" gradientUnits="userSpaceOnUse">
<stop offset="0.0833333" stop-color="#7B111D" stop-opacity="0.01"/>
<stop offset="1" stop-color="#520114"/>
</linearGradient>
<linearGradient id="paint14_linear_99_36124" x1="203.924" y1="321.065" x2="181.982" y2="522.749" gradientUnits="userSpaceOnUse">
<stop stop-color="#640D1D" stop-opacity="0.01"/>
<stop offset="1" stop-color="#4F0415"/>
</linearGradient>
<linearGradient id="paint15_linear_99_36124" x1="60.978" y1="68.2044" x2="-1.24942" y2="274.88" gradientUnits="userSpaceOnUse">
<stop stop-color="#72328D" stop-opacity="0.2"/>
<stop offset="0.28125" stop-color="#A8345E"/>
<stop offset="0.489583" stop-color="#CD2B2E" stop-opacity="0.79"/>
<stop offset="1" stop-color="#9E1D25" stop-opacity="0.26"/>
</linearGradient>
<linearGradient id="paint16_linear_99_36124" x1="704.06" y1="355.673" x2="696.66" y2="429.182" gradientUnits="userSpaceOnUse">
<stop stop-color="#753279"/>
<stop offset="0.589767" stop-color="#B42429"/>
<stop offset="1" stop-color="#9D1E26"/>
</linearGradient>
<linearGradient id="paint17_linear_99_36124" x1="158.748" y1="274.208" x2="61.5467" y2="506.816" gradientUnits="userSpaceOnUse">
<stop stop-color="#6A0D1C" stop-opacity="0.11"/>
<stop offset="1" stop-color="#6A0D1C"/>
</linearGradient>
</defs>
</svg>
